HIERARCHY
ROOT Hips
{
  OFFSET 3.13124 94.3669 -3.18751
  CHANNELS  6 Xposition Yposition Zposition Zrotation Xrotation Yrotation
  JOINT LeftUpLeg
  {
    OFFSET 8.64259 1.95398 -2.38835
    CHANNELS 3 Zrotation Xrotation Yrotation
    JOINT LeftLeg
    {
      OFFSET 43.7702 0 0
      CHANNELS 3 Zrotation Xrotation Yrotation
      JOINT LeftFoot
      {
        OFFSET 40.6238 0 0
        CHANNELS 3 Zrotation Xrotation Yrotation
        JOINT LeftToeBase
        {
          OFFSET 12.7242 0 0
          CHANNELS 3 Zrotation Xrotation Yrotation
          End Site
          {
            OFFSET 0 0 0
          }
        }
      }
    }
  }
  JOINT RightUpLeg
  {
    OFFSET -8.2249 1.95398 -2.59336
    CHANNELS 3 Zrotation Xrotation Yrotation
    JOINT RightLeg
    {
      OFFSET 43.5653 0 0
      CHANNELS 3 Zrotation Xrotation Yrotation
      JOINT RightFoot
      {
        OFFSET 40.6238 0 0
        CHANNELS 3 Zrotation Xrotation Yrotation
        JOINT RightToeBase
        {
          OFFSET 12.7242 0 0
          CHANNELS 3 Zrotation Xrotation Yrotation
          End Site
          {
            OFFSET 0 0 0
          }
        }
      }
    }
  }
  JOINT Spine
  {
    OFFSET 0.165834 0.87714 6.61349
    CHANNELS 3 Zrotation Xrotation Yrotation
    JOINT Spine1
    {
      OFFSET 7.38962 1.71661e-005 0
      CHANNELS 3 Zrotation Xrotation Yrotation
      JOINT Spine2
      {
        OFFSET 11.9445 1.14441e-005 0
        CHANNELS 3 Zrotation Xrotation Yrotation
        JOINT Spine3
        {
          OFFSET 14.7254 4.19617e-005 0
          CHANNELS 3 Zrotation Xrotation Yrotation
          JOINT Spine4
          {
            OFFSET 10.9679 0 0
            CHANNELS 3 Zrotation Xrotation Yrotation
            JOINT RightShoulder
            {
              OFFSET 2.46616 -1.6653 3.69651
              CHANNELS 3 Zrotation Xrotation Yrotation
              JOINT RightArm
              {
                OFFSET 13.0012 0 0
                CHANNELS 3 Zrotation Xrotation Yrotation
                JOINT RightForeArm
                {
                  OFFSET 28.7848 1.52588e-005 0
                  CHANNELS 3 Zrotation Xrotation Yrotation
                  JOINT RightHand
                  {
                    OFFSET 26.5688 1.52588e-005 0
                    CHANNELS 3 Zrotation Xrotation Yrotation
                    End Site
                    {
                      OFFSET 0 0 0
                    }
                  }
                }
              }
            }
            JOINT LeftShoulder
            {
              OFFSET 2.38034 -1.29275 -3.75231
              CHANNELS 3 Zrotation Xrotation Yrotation
              JOINT LeftArm
              {
                OFFSET 16.3182 6.10352e-005 0
                CHANNELS 3 Zrotation Xrotation Yrotation
                JOINT LeftForeArm
                {
                  OFFSET 27.0901 0 0
                  CHANNELS 3 Zrotation Xrotation Yrotation
                  JOINT LeftHand
                  {
                    OFFSET 24.5451 1.52588e-005 0
                    CHANNELS 3 Zrotation Xrotation Yrotation
                    End Site
                    {
                      OFFSET 0 0 0
                    }
                  }
                }
              }
            }
            JOINT Neck
            {
              OFFSET 5.0226 -0.0266342 0
              CHANNELS 3 Zrotation Xrotation Yrotation
              JOINT Head
              {
                OFFSET 6.69363 2.86102e-005 0
                CHANNELS 3 Zrotation Xrotation Yrotation
                End Site
                {
                  OFFSET 0 0 0
                }
              }
            }
          }
        }
      }
    }
  }
}
MOTION
Frames:	6
Frame Time:	0.0333333
-34.5918 85.9896 14.0314 89.7293 28.3138 82.0028 -176.708 44.6451 81.3538 -58.8722 2.2037 4.22173 45.1002 -2.55188 -2.90883 28.7808 4.93461e-006 4.67508e-007 179.557 39.3786 72.0012 -28.8688 -27.1814 -9.30796 36.4488 36.3667 34.8217 28.7808 1.53307e-005 2.9514e-005 -12.7821 17.0347 -80.2493 -8.09911 -19.034 9.98712 -19.6716 -18.5782 10.8321 -43.3148 -21.1201 3.5863 -23.3022 -21.1201 3.58629 48.9367 69.6008 4.40391 -52.5967 58.5376 -7.81987 0.199219 0.267301 -6.19094 -5.37983 -0.320001 -0.0162404 -36.3258 -18.5809 -179.147 -8.05776 -41.5253 -79.8378 23.4505 65.5182 -22.3162 -23.5049 -0.601988 -1.63221 105.697 23.8622 -6.30681 -11.5488 36.397 -62.3562 
-31.5627 86.8162 18.9047 90.8444 36.984 81.7936 -178.303 43.2309 83.3877 -54.7925 1.27224 5.25947 41.913 -3.45399 -3.88467 28.7808 4.93461e-006 4.67508e-007 179.229 36.6918 72.5602 -33.5429 -26.8591 -10.7263 42.1545 40.001 34.7692 28.7808 1.53307e-005 2.9514e-005 -13.2113 16.7502 -80.3712 -7.22696 -20.8548 11.0659 -18.7799 -20.3505 11.9952 -42.656 -23.1693 3.99677 -22.6434 -23.1693 3.99679 49.6201 65.3332 11.8872 -61.4714 52.5694 7.63598 0.854431 0.229225 -7.77716 -5.37983 -0.320001 -0.0162404 -33.5491 -18.2269 -174.695 -7.78046 -42.0938 -78.0413 31.1144 71.1225 -27.9964 -23.2463 0.599676 -8.10259 107.301 25.7475 -7.76285 -6.36523 37.2312 -67.8913 
-28.0108 87.822 23.7903 92.2245 46.0809 81.6003 -179.466 41.4226 85.6864 -49.0848 2.57631 5.95895 38.0254 -2.24874 -3.13031 28.7808 4.93461e-006 4.67508e-007 177.675 33.6197 74.7542 -35.5798 -26.0352 -11.0783 50.8649 38.9844 29.0848 28.7808 1.53307e-005 2.9514e-005 -13.625 16.5048 -80.6853 -6.27797 -22.7255 12.2289 -17.8093 -22.1692 13.2456 -41.9505 -25.2883 4.45538 -21.9379 -25.2883 4.4554 57.8638 58.7139 15.103 -63.8953 46.8213 19.0927 0.254125 0.225975 -9.04631 -5.37983 -0.320001 -0.0162404 -30.3283 -17.7888 -169.736 -7.49737 -42.9507 -76.6054 44.4815 76.1092 -39.0141 -24.0834 2.08483 -15.6552 109.87 27.1004 -9.90067 -0.335994 37.7082 -74.4241 
-23.9626 88.8595 28.4438 93.9486 55.1641 80.4409 179.792 38.8904 87.5413 -41.0916 5.58728 6.23846 33.2398 -2.35966 -3.59527 28.7808 4.93461e-006 4.67508e-007 176.098 31.0612 77.1189 -36.4625 -22.8079 -10.7443 56.8848 36.3147 24.2036 28.7808 1.53307e-005 2.9514e-005 -14.1372 16.2307 -81.0676 -5.15624 -24.7294 13.4639 -16.6618 -24.1181 14.5754 -41.1208 -27.5519 4.91599 -21.1082 -27.5519 4.91598 70.9106 50.3828 15.3203 -61.1414 41.8722 27.1331 -0.538976 0.265916 -9.97602 -5.37983 -0.320001 -0.0162404 -26.6991 -17.3593 -164.503 -5.86866 -43.8246 -73.98 60.7855 77.4751 -54.5418 -28.6503 3.46756 -19.5621 113.49 27.2231 -12.7933 5.56471 38.2918 -79.5176 
-19.5668 89.4399 32.3029 95.1693 64.2005 79.4408 178.898 36.8794 88.8804 -32.3319 7.44634 6.22422 28.0262 -2.77847 -4.49994 28.7808 4.93461e-006 4.67508e-007 174.346 29.7757 79.3254 -37.2633 -18.7633 -9.84558 63.3704 35.0208 20.512 28.7808 1.53307e-005 2.9514e-005 -14.5554 15.9991 -81.8675 -3.95661 -26.7902 14.3638 -15.4279 -26.1385 15.5771 -40.2693 -29.7649 5.00608 -20.2566 -29.7649 5.00607 84.144 41.6015 15.0169 -54.7829 38.8045 31.3452 -1.06362 0.320106 -10.4156 -5.37983 -0.320001 -0.0162404 -22.2506 -17.8314 -159.519 -2.86318 -45.3817 -69.6963 59.4393 76.6246 -53.6181 -27.279 3.43761 -20.1148 117.381 26.6197 -15.4089 11.1891 38.4843 -83.6084 
-14.8779 89.8717 35.501 97.4683 72.3664 77.5484 179.112 34.1366 90.2531 -21.9848 8.99142 5.24926 20.4741 -3.46766 -6.13361 28.7808 4.93461e-006 4.67508e-007 172.464 28.3954 81.8719 -37.1713 -14.14 -8.44742 68.9767 32.2476 16.7117 28.7808 1.53307e-005 2.9514e-005 -15.0206 15.5221 -82.4329 -2.28883 -28.6557 15.3945 -13.7288 -27.9582 16.7004 -38.9452 -31.8289 5.27129 -18.9325 -31.8289 5.27132 95.9176 33.0696 15.6276 -46.3355 37.7662 31.8872 -1.23545 0.350413 -10.8048 -5.37983 -0.320001 -0.0162404 -18.0114 -18.0026 -154.841 2.77977 -45.2913 -61.7889 67.5691 76.7804 -65.9531 -23.1276 0.269668 -6.41243 120.881 26.4381 -17.8318 17.0747 38.1577 -87.8807 
